<svg width="655" height="282" viewBox="0 0 655 282" fill="none" xmlns="http://www.w3.org/2000/svg">
<path d="M286.553 212V84.7273H309.609V192.673H365.664V212H286.553ZM379.43 212V116.545H401.926V212H379.43ZM390.74 102.998C387.177 102.998 384.112 101.817 381.543 99.4556C378.974 97.0527 377.69 94.1733 377.69 90.8175C377.69 87.4202 378.974 84.5408 381.543 82.1793C384.112 79.7764 387.177 78.5749 390.74 78.5749C394.345 78.5749 397.411 79.7764 399.938 82.1793C402.507 84.5408 403.791 87.4202 403.791 90.8175C403.791 94.1733 402.507 97.0527 399.938 99.4556C397.411 101.817 394.345 102.998 390.74 102.998ZM442.306 156.07V212H419.81V116.545H441.312V132.765H442.431C444.626 127.421 448.127 123.174 452.933 120.026C457.78 116.877 463.767 115.303 470.893 115.303C477.48 115.303 483.218 116.711 488.107 119.528C493.037 122.346 496.849 126.426 499.542 131.771C502.276 137.115 503.623 143.599 503.581 151.222V212H481.085V154.702C481.085 148.322 479.428 143.33 476.113 139.725C472.84 136.121 468.304 134.319 462.503 134.319C458.568 134.319 455.067 135.189 452.001 136.929C448.977 138.628 446.594 141.093 444.854 144.324C443.156 147.556 442.306 151.471 442.306 156.07ZM541.708 182.046L541.646 154.889H545.251L579.555 116.545H605.842L563.646 163.527H558.985L541.708 182.046ZM521.201 212V84.7273H543.697V212H521.201ZM581.108 212L550.036 168.561L565.199 152.714L608.017 212H581.108Z" fill="#1F202D"/>
<path fill-rule="evenodd" clip-rule="evenodd" d="M15.8868 166.033C-2.58187 181.53 -5.35118 209.36 9.70141 228.192L39.8066 265.858C54.8592 284.69 82.0336 287.394 100.502 271.897L181.122 204.249C199.591 188.752 202.36 160.922 187.308 142.09L157.202 104.424C142.15 85.5915 114.975 82.8874 96.5067 98.3845L79.1804 112.923L94.0652 130.662L110.969 116.478C119.638 109.204 132.393 110.473 139.458 119.313L169.564 156.979C176.629 165.818 175.329 178.881 166.66 186.156L86.0404 253.804C77.3714 261.078 64.6161 259.809 57.5506 250.969L27.4454 213.303C20.3799 204.463 21.6797 191.4 30.3487 184.126L79.2808 143.067L64.3961 125.329L15.8868 166.033Z" fill="#3ABEF9"/>
<path fill-rule="evenodd" clip-rule="evenodd" d="M54.6924 139.87C39.6398 121.037 42.4091 93.2073 60.8778 77.7102L141.498 10.0621C159.966 -5.435 187.141 -2.73094 202.193 16.1018L232.299 53.7672C247.351 72.6 244.582 100.43 226.113 115.927L188.786 147.248C187.926 145.871 186.978 144.531 185.943 143.235L174.542 128.971L211.651 97.8331C220.32 90.559 221.62 77.496 214.555 68.6562L184.449 30.9907C177.384 22.1509 164.629 20.8816 155.96 28.1557L75.3397 95.8039C66.6707 103.078 65.3708 116.141 72.4363 124.981L102.542 162.646C109.607 171.486 122.362 172.755 131.031 165.481L147.514 151.651L162.398 169.39L145.493 183.575C127.025 199.072 99.8502 196.368 84.7976 177.535L54.6924 139.87Z" fill="#050C9C"/>
</svg>
